/* XPM */
static char * product_logo_32_xpm[] = {
"32 32 74 1",
" 	c None",
".	c #2D8EFF",
"+	c #338FFF",
"@	c #579AFF",
"#	c #5C9CFF",
"$	c #569AFF",
"%	c #328FFF",
"&	c #B3CAFF",
"*	c #EBF1FF",
"=	c #EFF3FF",
"-	c #EBF0FF",
";	c #AFC8FF",
">	c #318FFF",
",	c #FFFFFF",
"'	c #FDFEFF",
")	c #FCFDFF",
"!	c #E8EEFF",
"~	c #4F98FF",
"{	c #C6D7FF",
"]	c #8FB5FF",
"^	c #9BBCFF",
"/	c #C8D8FF",
"(	c #F4F7FF",
"_	c #5299FF",
":	c #ADC6FF",
"<	c #8BB2FF",
"[	c #E9F0FF",
"}	c #F6F8FF",
"|	c #4C97FF",
"1	c #639FFF",
"2	c #5F9DFF",
"3	c #3490FF",
"4	c #3690FF",
"5	c #CCDBFF",
"6	c #F2F6FF",
"7	c #A5C2FF",
"8	c #99BBFF",
"9	c #FDFDFF",
"0	c #B8CEFF",
"a	c #D3E0FF",
"b	c #82AEFF",
"c	c #FAFBFF",
"d	c #B7CDFF",
"e	c #BED2FF",
"f	c #2F8EFF",
"g	c #90B5FF",
"h	c #6CA3FF",
"i	c #93B7FF",
"j	c #5499FF",
"k	c #B9CEFF",
"l	c #65A0FF",
"m	c #E9EFFF",
"n	c #CDDCFF",
"o	c #4C96FF",
"p	c #DCE6FF",
"q	c #FEFEFF",
"r	c #F2F5FF",
"s	c #E2EAFF",
"t	c #E6EDFF",
"u	c #A0BFFF",
"v	c #4293FF",
"w	c #7FACFF",
"x	c #F7FAFF",
"y	c #77A8FF",
"z	c #C7D8FF",
"A	c #92B7FF",
"B	c #CEDDFF",
"C	c #BCD0FF",
"D	c #A9C4FF",
"E	c #F9FBFF",
"F	c #E7EEFF",
"G	c #4F97FF",
"H	c #ABC5FF",
"I	c #308FFF",
"                                ",
"                                ",
"                                ",
"   ..........................   ",
"   ..........................   ",
"   ...+@################$%...   ",
"   ..+&*================-;>..   ",
"   ..@*,'))))))',,,,,,,,,!~..   ",
"   ..#=,{]]]]]]^/(,,,,,,,*_..   ",
"   ..#=,:.......%<[,,,,,,*_..   ",
"   ..#=,:.........]},,,,,*_..   ",
"   ..#=,:...|123..45,,,,,*_..   ",
"   ..#=,:...;6=7...89,,,,*_..   ",
"   ..#=,:...0,,a3..bc,,,,*_..   ",
"   ..#=,:...d9)ef..g),,,,*_..   ",
"   ..#=,:...hi]j...k,,,,,*_..   ",
"   ..#=,:.........lm,,,,,*_..   ",
"   ..#=,:........@n,,,,,,*_..   ",
"   ..#=,:...o11h8pq,,,,,,*_..   ",
"   ..#=,:...;rr(),,,,,,,,*_..   ",
"   ..#=,:...0,*sssssssstq*_..   ",
"   ..#=,:...0quvvvvvvvvwx*_..   ",
"   ..#=,:...0q^........yx*_..   ",
"   ..#=,zAAABqC]]]]]]]]DE*_..   ",
"   ..$-,')))q,9))))))))),FG..   ",
"   ..%;!****************FHI..   ",
"   ...>~________________GI...   ",
"   ..........................   ",
"   ..........................   ",
"                                ",
"                                ",
"                                "};
