<?xml version="1.0" encoding="UTF-8" standalone="yes"?>
<svg xmlns="http://www.w3.org/2000/svg" xmlns:xlink="http://www.w3.org/1999/xlink" width="120px" height="120px" viewBox="0 0 120 120" version="1.1">
  <g id="surface1">
    <path style=" stroke:none;fill-rule:nonzero;fill:rgb(100%,100%,100%);fill-opacity:1;" d="M 20.023438 19.460938 L 101.105469 19.460938 L 101.105469 100.539062 L 20.023438 100.539062 Z M 20.023438 19.460938 "/>
    <path style=" stroke:none;fill-rule:nonzero;fill:rgb(17.647059%,55.686277%,100%);fill-opacity:1;" d="M 46.867188 71.226562 L 55.949219 71.226562 C 58.550781 71.230469 61.121094 70.65625 63.46875 69.542969 C 65.691406 68.441406 67.675781 66.917969 69.308594 65.054688 C 70.925781 63.125 72.179688 60.917969 73.011719 58.539062 C 73.914062 56.136719 74.371094 53.585938 74.359375 51.019531 C 74.375 48.511719 73.878906 46.03125 72.902344 43.722656 C 71.960938 41.382812 70.632812 39.21875 68.972656 37.324219 C 67.300781 35.421875 65.28125 33.855469 63.019531 32.71875 C 60.695312 31.519531 58.113281 30.90625 55.5 30.925781 L 31.597656 30.925781 L 31.597656 88.976562 L 46.867188 88.976562 Z M 46.867188 44.957031 L 54.613281 44.957031 C 55.6875 45.027344 56.695312 45.511719 57.421875 46.304688 C 58.320312 47.203125 58.882812 48.773438 58.882812 51.242188 C 58.882812 53.714844 58.320312 55.175781 57.53125 55.957031 C 56.90625 56.769531 55.957031 57.261719 54.9375 57.304688 L 46.867188 57.304688 Z M 46.867188 44.957031 "/>
    <path style=" stroke:none;fill-rule:nonzero;fill:rgb(17.647059%,55.686277%,100%);fill-opacity:1;" d="M 11.351562 16.941406 L 11.351562 103.058594 C 11.351562 104.542969 11.9375 105.964844 12.988281 107.011719 C 14.035156 108.0625 15.457031 108.648438 16.941406 108.648438 L 103.058594 108.648438 C 104.542969 108.648438 105.964844 108.0625 107.011719 107.011719 C 108.0625 105.964844 108.648438 104.542969 108.648438 103.058594 L 108.648438 16.941406 C 108.648438 15.457031 108.0625 14.035156 107.011719 12.988281 C 105.964844 11.9375 104.542969 11.351562 103.058594 11.351562 L 16.941406 11.351562 C 15.457031 11.351562 14.035156 11.9375 12.988281 12.988281 C 11.9375 14.035156 11.351562 15.457031 11.351562 16.941406 Z M 91.597656 97.1875 L 28.285156 97.1875 C 25.199219 97.183594 22.699219 94.683594 22.703125 91.597656 L 22.703125 28.285156 C 22.703125 25.203125 25.203125 22.703125 28.285156 22.703125 L 91.597656 22.703125 C 93.082031 22.703125 94.503906 23.289062 95.550781 24.339844 C 96.597656 25.386719 97.1875 26.808594 97.1875 28.289062 L 97.1875 91.597656 C 97.1875 93.082031 96.597656 94.503906 95.550781 95.550781 C 94.503906 96.597656 93.082031 97.1875 91.597656 97.1875 Z M 91.597656 97.1875 "/>
    <path style=" stroke:none;fill-rule:nonzero;fill:rgb(17.647059%,55.686277%,100%);fill-opacity:1;" d="M 53.714844 78.074219 L 89.527344 78.074219 L 89.527344 89.074219 L 53.714844 89.074219 Z M 53.714844 78.074219 "/>
  </g>
</svg>