<?xml version="1.0" encoding="UTF-8" standalone="no"?>
<svg
   xmlns:dc="http://purl.org/dc/elements/1.1/"
   xmlns:cc="http://creativecommons.org/ns#"
   xmlns:rdf="http://www.w3.org/1999/02/22-rdf-syntax-ns#"
   xmlns:svg="http://www.w3.org/2000/svg"
   xmlns="http://www.w3.org/2000/svg"
   xmlns:sodipodi="http://sodipodi.sourceforge.net/DTD/sodipodi-0.dtd"
   xmlns:inkscape="http://www.inkscape.org/namespaces/inkscape"
   width="219"
   height="176"
   fill="none"
   version="1.1"
   id="svg51"
   sodipodi:docname="presearch-ipfs.svg"
   inkscape:version="1.0.1 (3bc2e813f5, 2020-09-07)">
  <metadata
     id="metadata55">
    <rdf:RDF>
      <cc:Work
         rdf:about="">
        <dc:format>image/svg+xml</dc:format>
        <dc:type
           rdf:resource="http://purl.org/dc/dcmitype/StillImage" />
      </cc:Work>
    </rdf:RDF>
  </metadata>
  <sodipodi:namedview
     pagecolor="#ffffff"
     bordercolor="#666666"
     borderopacity="1"
     objecttolerance="10"
     gridtolerance="10"
     guidetolerance="10"
     inkscape:pageopacity="0"
     inkscape:pageshadow="2"
     inkscape:window-width="796"
     inkscape:window-height="480"
     id="namedview53"
     showgrid="false"
     inkscape:zoom="2.9943182"
     inkscape:cx="109.5"
     inkscape:cy="88"
     inkscape:window-x="0"
     inkscape:window-y="28"
     inkscape:window-maximized="0"
     inkscape:current-layer="svg51" />
  <circle
     cx="115.354"
     cy="90.442"
     r="84.578"
     stroke="#DADCE8"
     stroke-width=".876"
     id="circle2" />
  <circle
     cx="115.354"
     cy="90.442"
     r="66.172"
     stroke="#DADCE8"
     stroke-width=".876"
     id="circle4" />
  <circle
     cx="115.1"
     cy="90.204"
     r="48.643"
     stroke="#DADCE8"
     stroke-width=".876"
     id="circle6" />
  <path
     d="M42.014 130.189V88.946L6.295 68.324v41.243l35.718 20.622z"
     fill="#000"
     fill-opacity=".039"
     id="path14" />
  <path
     fill-rule="evenodd"
     clip-rule="evenodd"
     d="M192.747 63.659c1.017 0 8.561-1.44 8.561-1.44s8.94 10.796 8.94 13.103c0 1.907-.769 2.654-1.675 3.533-.189.184-.385.374-.581.582l-6.703 7.11c-.066.07-.14.145-.219.224-.669.672-1.654 1.661-.959 3.305l.143.335c.762 1.78 1.703 3.978.505 6.206-1.274 2.37-3.456 3.951-4.855 3.689-1.399-.261-4.683-1.976-5.891-2.76-1.208-.782-5.036-3.936-5.036-5.143 0-1.006 2.753-2.68 4.091-3.494.266-.162.476-.29.597-.37.138-.094.369-.237.653-.413 1.221-.758 3.426-2.126 3.481-2.733.068-.748.043-.967-.942-2.815-.209-.393-.454-.814-.707-1.249-.937-1.61-1.986-3.414-1.754-4.705.262-1.459 2.55-2.295 4.488-3.003.242-.088.478-.175.705-.26.565-.214 1.276-.48 2.018-.757 1.935-.724 4.084-1.528 4.439-1.692.491-.226.364-.441-1.122-.582-.197-.018-.441-.044-.722-.074-1.84-.195-5.233-.555-6.883-.096-.324.09-.688.189-1.069.292-1.854.501-4.125 1.115-4.343 1.47-.038.062-.076.115-.111.165-.209.296-.345.49-.114 1.75.069.374.21 1.112.385 2.024.512 2.671 1.311 6.837 1.411 7.773.014.131.03.257.045.379.128 1.044.213 1.739-1.001 2.016l-.318.073c-1.369.314-3.378.774-4.103.774-.726 0-2.736-.46-4.106-.774l-.315-.073c-1.215-.277-1.129-.972-1.001-2.016.015-.122.03-.248.044-.379.101-.937.902-5.114 1.414-7.784.174-.907.314-1.64.383-2.014.23-1.26.094-1.453-.114-1.749a2.762 2.762 0 01-.111-.166c-.219-.354-2.49-.968-4.343-1.47-.382-.102-.745-.2-1.07-.291-1.65-.46-5.042-.1-6.882.096-.281.03-.525.056-.722.074-1.486.141-1.613.356-1.122.582.354.163 2.502.967 4.437 1.691.742.278 1.454.544 2.02.758.226.085.463.172.705.26 1.938.708 4.225 1.544 4.487 3.003.233 1.291-.816 3.094-1.753 4.705-.253.435-.499.856-.708 1.25-.984 1.847-1.01 2.066-.942 2.814.056.606 2.259 1.974 3.48 2.732.285.177.516.32.654.413.122.082.331.21.597.371 1.338.813 4.092 2.488 4.092 3.494 0 1.207-3.829 4.36-5.036 5.144-1.208.783-4.493 2.498-5.891 2.759-1.399.262-3.582-1.32-4.856-3.69-1.197-2.227-.257-4.424.505-6.205l.143-.335c.696-1.644-.29-2.633-.959-3.305-.078-.079-.152-.153-.219-.224l-6.703-7.11a18.234 18.234 0 00-.581-.582c-.905-.879-1.674-1.626-1.674-3.533 0-2.307 8.94-13.102 8.94-13.102s7.544 1.439 8.561 1.439c.812 0 2.379-.54 4.013-1.101.413-.142.831-.286 1.242-.423 2.035-.677 3.391-.682 3.391-.682s1.356.005 3.39.682c.411.137.829.28 1.243.423 1.634.562 3.201 1.1 4.013 1.1zm-1.295 38.183c1.594.821 2.726 1.403 3.154 1.671.553.346.215.998-.289 1.354-.504.356-7.278 5.596-7.936 6.175l-.266.238c-.633.571-1.441 1.298-2.014 1.298-.573 0-1.382-.728-2.015-1.298a29.24 29.24 0 00-.266-.238c-.657-.579-7.432-5.819-7.936-6.175-.504-.356-.841-1.008-.288-1.354.428-.268 1.56-.851 3.157-1.672l1.517-.782c2.389-1.235 5.366-2.285 5.831-2.285.464 0 3.442 1.05 5.831 2.285l1.52.783z"
     fill="#fff"
     id="path20" />
  <mask
     id="a"
     maskUnits="userSpaceOnUse"
     x="155"
     y="49"
     width="58"
     height="15">
    <path
       fill-rule="evenodd"
       clip-rule="evenodd"
       d="M203.257 57.224l-6.95-7.876h-24.412l-6.951 7.876s-6.102-1.693-8.984 1.186c0 0 8.137-.734 10.934 3.81 0 0 7.544 1.439 8.561 1.439 1.017 0 3.221-.847 5.255-1.524 2.035-.677 3.391-.682 3.391-.682s1.356.005 3.39.682c2.035.677 4.238 1.524 5.256 1.524 1.017 0 8.561-1.44 8.561-1.44 2.797-4.543 10.934-3.81 10.934-3.81-2.882-2.878-8.985-1.185-8.985-1.185z"
       fill="#fff"
       id="path24" />
  </mask>
  <path
     d="M125.06 92.447h-7.531v7.718h-3.952v-7.718h-7.532v-3.58h7.532V81.15h3.952v7.718h7.531v3.58z"
     fill="#000"
     id="path27" />
  <defs
     id="defs49">
    <linearGradient
       id="paint0_linear"
       x1="6.296"
       y1="88.946"
       x2="77.731"
       y2="88.946"
       gradientUnits="userSpaceOnUse">
      <stop
         stop-color="#4A9EA1"
         id="stop29" />
    </linearGradient>
    <linearGradient
       id="paint1_linear"
       x1="8.77"
       y1="88.941"
       x2="75.257"
       y2="88.941"
       gradientUnits="userSpaceOnUse">
      <stop
         stop-color="#63D3D7"
         id="stop32" />
    </linearGradient>
    <linearGradient
       id="paint2_linear"
       x1="150.196"
       y1="129.331"
       x2="218.006"
       y2="129.331"
       gradientUnits="userSpaceOnUse"
       gradientTransform="translate(1.446e-6)">
      <stop
         stop-color="#F50"
         id="stop35" />
      <stop
         offset=".41"
         stop-color="#F50"
         id="stop37" />
      <stop
         offset=".582"
         stop-color="#FF2000"
         id="stop39" />
      <stop
         offset="1"
         stop-color="#FF2000"
         id="stop41" />
    </linearGradient>
    <linearGradient
       id="paint3_linear"
       x1="157.169"
       y1="63.606"
       x2="212.242"
       y2="63.606"
       gradientUnits="userSpaceOnUse">
      <stop
         stop-color="#FF452A"
         id="stop44" />
      <stop
         offset="1"
         stop-color="#FF2000"
         id="stop46" />
    </linearGradient>
  </defs>
</svg>
